<?xml version="1.0" encoding="UTF-8"?>
<!DOCTYPE svg PUBLIC "-//W3C//DTD SVG 1.1//EN" "http://www.w3.org/Graphics/SVG/1.1/DTD/svg11.dtd">
<svg xmlns="http://www.w3.org/2000/svg" version="1.1" width="761px" height="1076px" style="shape-rendering:geometricPrecision; text-rendering:geometricPrecision; image-rendering:optimizeQuality; fill-rule:evenodd; clip-rule:evenodd" xmlns:xlink="http://www.w3.org/1999/xlink">
<g><path style="opacity:1" fill="#fefefe" d="M -0.5,-0.5 C 253.167,-0.5 506.833,-0.5 760.5,-0.5C 760.5,358.167 760.5,716.833 760.5,1075.5C 506.833,1075.5 253.167,1075.5 -0.5,1075.5C -0.5,716.833 -0.5,358.167 -0.5,-0.5 Z"/></g>
<g><path style="opacity:1" fill="#f0db29" d="M 100.5,54.5 C 100.5,55.5 100.5,56.5 100.5,57.5C 97.4432,58.6967 94.7765,60.53 92.5,63C 91.8333,63.1667 91.1667,63.3333 90.5,63.5C 88.9644,62.7515 87.6311,61.7515 86.5,60.5C 85.7025,60.9569 85.3691,61.6236 85.5,62.5C 84.2921,63.2341 82.9587,63.5674 81.5,63.5C 81.5,60.5 81.5,57.5 81.5,54.5C 87.8333,54.5 94.1667,54.5 100.5,54.5 Z"/></g>
<g><path style="opacity:1" fill="#394f92" d="M 73.5,54.5 C 75.8333,54.5 78.1667,54.5 80.5,54.5C 80.6653,58.1817 80.4986,61.8484 80,65.5C 79.586,65.9574 79.086,66.2907 78.5,66.5C 77.8503,64.8164 76.8503,63.4831 75.5,62.5C 72.7956,58.4168 71.7956,58.5835 72.5,63C 70.3849,63.5362 69.0516,62.7029 68.5,60.5C 69.8333,58.8333 71.1667,57.1667 72.5,55.5C 73.1667,55.5 73.5,55.1667 73.5,54.5 Z"/></g>
<g><path style="opacity:1" fill="#f4e69d" d="M 73.5,54.5 C 73.5,55.1667 73.1667,55.5 72.5,55.5C 66.69,54.5104 60.69,54.1771 54.5,54.5C 54.5,63.8333 54.5,73.1667 54.5,82.5C 57.8333,82.5 61.1667,82.5 64.5,82.5C 64.5,81.1667 64.5,79.8333 64.5,78.5C 65.4345,79.5676 65.7678,80.901 65.5,82.5C 61.7016,83.4834 57.7016,83.8168 53.5,83.5C 53.5,73.5 53.5,63.5 53.5,53.5C 60.3543,53.176 67.021,53.5093 73.5,54.5 Z"/></g>
<g><path style="opacity:1" fill="#959573" d="M 75.5,62.5 C 74.0802,63.8664 72.5802,65.1998 71,66.5C 69.8643,65.2173 68.531,64.2173 67,63.5C 65.9701,63.8361 65.4701,64.5028 65.5,65.5C 64.7326,64.828 64.0659,63.9947 63.5,63C 65.1193,62.7645 66.1193,61.9311 66.5,60.5C 67.1667,60.5 67.8333,60.5 68.5,60.5C 69.0516,62.7029 70.3849,63.5362 72.5,63C 71.7956,58.5835 72.7956,58.4168 75.5,62.5 Z"/></g>
<g><path style="opacity:1" fill="#77a3d9" d="M 96.5,82.5 C 95.9717,81.2794 95.305,80.1127 94.5,79C 89.2533,77.919 85.2533,75.0856 82.5,70.5C 83.9501,69.1502 84.6168,67.4835 84.5,65.5C 85.1098,64.609 85.4431,63.609 85.5,62.5C 85.3691,61.6236 85.7025,60.9569 86.5,60.5C 87.6311,61.7515 88.9644,62.7515 90.5,63.5C 91.1667,63.3333 91.8333,63.1667 92.5,63C 94.7765,60.53 97.4432,58.6967 100.5,57.5C 101.404,56.791 101.737,55.791 101.5,54.5C 118.833,54.5 136.167,54.5 153.5,54.5C 153.5,63.8333 153.5,73.1667 153.5,82.5C 134.5,82.5 115.5,82.5 96.5,82.5 Z"/></g>
<g><path style="opacity:1" fill="#cabc5b" d="M 100.5,54.5 C 94.1667,54.5 87.8333,54.5 81.5,54.5C 81.5,57.5 81.5,60.5 81.5,63.5C 82.9587,63.5674 84.2921,63.2341 85.5,62.5C 85.4431,63.609 85.1098,64.609 84.5,65.5C 82.6075,66.7017 80.7742,68.035 79,69.5C 78.5304,70.5768 78.6971,71.5768 79.5,72.5C 76.8045,72.067 74.6379,70.7337 73,68.5C 72.7645,70.1193 71.9311,71.1193 70.5,71.5C 69.5806,68.9108 67.914,66.9108 65.5,65.5C 65.4701,64.5028 65.9701,63.8361 67,63.5C 68.531,64.2173 69.8643,65.2173 71,66.5C 72.5802,65.1998 74.0802,63.8664 75.5,62.5C 76.8503,63.4831 77.8503,64.8164 78.5,66.5C 79.086,66.2907 79.586,65.9574 80,65.5C 80.4986,61.8484 80.6653,58.1817 80.5,54.5C 87.1667,53.1667 93.8333,53.1667 100.5,54.5 Z"/></g>
<g><path style="opacity:1" fill="#ebcd2f" d="M 72.5,55.5 C 71.1667,57.1667 69.8333,58.8333 68.5,60.5C 67.8333,60.5 67.1667,60.5 66.5,60.5C 64.8653,59.1854 63.1986,59.1854 61.5,60.5C 60.9126,64.5681 59.5793,68.2348 57.5,71.5C 57.4534,73.0377 58.1201,74.0377 59.5,74.5C 60.5794,76.543 62.246,77.8763 64.5,78.5C 64.5,79.8333 64.5,81.1667 64.5,82.5C 61.1667,82.5 57.8333,82.5 54.5,82.5C 54.5,73.1667 54.5,63.8333 54.5,54.5C 60.69,54.1771 66.69,54.5104 72.5,55.5 Z"/></g>
<g><path style="opacity:1" fill="#3b4d97" d="M 66.5,60.5 C 66.1193,61.9311 65.1193,62.7645 63.5,63C 64.0659,63.9947 64.7326,64.828 65.5,65.5C 67.914,66.9108 69.5806,68.9108 70.5,71.5C 69.5084,71.3284 68.8417,71.6618 68.5,72.5C 66.0799,72.7076 63.7466,72.3742 61.5,71.5C 60.8243,72.6016 60.1577,73.6016 59.5,74.5C 58.1201,74.0377 57.4534,73.0377 57.5,71.5C 59.5793,68.2348 60.9126,64.5681 61.5,60.5C 63.1986,59.1854 64.8653,59.1854 66.5,60.5 Z"/></g>
<g><path style="opacity:1" fill="#e3cd44" d="M 79.5,72.5 C 82.9186,74.4116 85.9186,76.9116 88.5,80C 85.2859,80.0949 82.6192,78.9283 80.5,76.5C 77.0744,75.0955 73.4077,74.0955 69.5,73.5C 69.8627,72.8165 70.1961,72.1499 70.5,71.5C 71.9311,71.1193 72.7645,70.1193 73,68.5C 74.6379,70.7337 76.8045,72.067 79.5,72.5 Z"/></g>
<g><path style="opacity:1" fill="#395095" d="M 84.5,65.5 C 84.6168,67.4835 83.9501,69.1502 82.5,70.5C 85.2533,75.0856 89.2533,77.919 94.5,79C 95.305,80.1127 95.9717,81.2794 96.5,82.5C 89.8333,82.5 83.1667,82.5 76.5,82.5C 76.5,80.5 76.5,78.5 76.5,76.5C 77.8333,76.5 79.1667,76.5 80.5,76.5C 82.6192,78.9283 85.2859,80.0949 88.5,80C 85.9186,76.9116 82.9186,74.4116 79.5,72.5C 78.6971,71.5768 78.5304,70.5768 79,69.5C 80.7742,68.035 82.6075,66.7017 84.5,65.5 Z"/></g>
<g><path style="opacity:1" fill="#b0a867" d="M 70.5,71.5 C 70.1961,72.1499 69.8627,72.8165 69.5,73.5C 73.4077,74.0955 77.0744,75.0955 80.5,76.5C 79.1667,76.5 77.8333,76.5 76.5,76.5C 76.5,78.5 76.5,80.5 76.5,82.5C 75.5,82.5 74.5,82.5 73.5,82.5C 73.5,80.1667 73.5,77.8333 73.5,75.5C 70.1016,75.8204 66.7683,75.487 63.5,74.5C 65.2914,73.8302 66.9581,73.1635 68.5,72.5C 68.8417,71.6618 69.5084,71.3284 70.5,71.5 Z"/></g>
<g><path style="opacity:1" fill="#4b597e" d="M 68.5,72.5 C 66.9581,73.1635 65.2914,73.8302 63.5,74.5C 66.7683,75.487 70.1016,75.8204 73.5,75.5C 73.5,77.8333 73.5,80.1667 73.5,82.5C 73.1667,82.5 72.8333,82.5 72.5,82.5C 72.5,80.5 72.5,78.5 72.5,76.5C 70.396,76.2011 68.396,76.5344 66.5,77.5C 67.5,78.1667 68.5,78.8333 69.5,79.5C 69.0623,80.5063 68.3957,80.5063 67.5,79.5C 66.6143,80.325 66.281,81.325 66.5,82.5C 66.1667,82.5 65.8333,82.5 65.5,82.5C 65.7678,80.901 65.4345,79.5676 64.5,78.5C 62.246,77.8763 60.5794,76.543 59.5,74.5C 60.1577,73.6016 60.8243,72.6016 61.5,71.5C 63.7466,72.3742 66.0799,72.7076 68.5,72.5 Z"/></g>
<g><path style="opacity:1" fill="#31469b" d="M 72.5,82.5 C 70.5,82.5 68.5,82.5 66.5,82.5C 66.281,81.325 66.6143,80.325 67.5,79.5C 68.3957,80.5063 69.0623,80.5063 69.5,79.5C 68.5,78.8333 67.5,78.1667 66.5,77.5C 68.396,76.5344 70.396,76.2011 72.5,76.5C 72.5,78.5 72.5,80.5 72.5,82.5 Z"/></g>
<g><path style="opacity:1" fill="#428abe" d="M 235.5,201.5 C 396.167,201.5 556.833,201.5 717.5,201.5C 717.5,204.167 717.5,206.833 717.5,209.5C 556.833,209.5 396.167,209.5 235.5,209.5C 235.5,206.833 235.5,204.167 235.5,201.5 Z"/></g>
<g><path style="opacity:1" fill="#348ecf" d="M 236.5,202.5 C 238.117,203.589 238.95,205.256 239,207.5C 394.903,206.999 550.737,206.166 706.5,205C 550.832,204.833 395.166,204.333 239.5,203.5C 398.165,202.5 556.832,202.167 715.5,202.5C 715.739,204.467 715.406,206.301 714.5,208C 555.5,208.667 396.5,208.667 237.5,208C 236.594,206.301 236.261,204.467 236.5,202.5 Z"/></g>
<g><path style="opacity:1" fill="#e0e0e0" d="M 716.5,267.5 C 717.043,267.56 717.376,267.893 717.5,268.5C 685.84,269.5 654.174,269.833 622.5,269.5C 622.5,276.167 622.5,282.833 622.5,289.5C 621.833,289.5 621.167,289.5 620.5,289.5C 620.5,282.833 620.5,276.167 620.5,269.5C 557.167,269.5 493.833,269.5 430.5,269.5C 525.833,268.833 621.167,268.167 716.5,267.5 Z"/></g>
<g><path style="opacity:1" fill="#fefefe" d="M 430.5,269.5 C 493.833,269.5 557.167,269.5 620.5,269.5C 620.5,276.167 620.5,282.833 620.5,289.5C 557.167,289.5 493.833,289.5 430.5,289.5C 430.5,282.833 430.5,276.167 430.5,269.5 Z"/></g>
<g><path style="opacity:1" fill="#c8c8c8" d="M 716.5,267.5 C 621.167,268.167 525.833,268.833 430.5,269.5C 430.5,276.167 430.5,282.833 430.5,289.5C 493.833,289.5 557.167,289.5 620.5,289.5C 621.167,289.5 621.833,289.5 622.5,289.5C 749.167,289.833 749.167,290.167 622.5,290.5C 622.5,297.5 622.5,304.5 622.5,311.5C 523.5,312.828 427.167,312.828 333.5,311.5C 333.5,304.5 333.5,297.5 333.5,290.5C 300.832,290.667 268.165,290.5 235.5,290C 300.166,289.5 364.832,289.333 429.5,289.5C 429.5,282.5 429.5,275.5 429.5,268.5C 364.832,268.667 300.166,268.5 235.5,268C 395.833,267.5 556.166,267.333 716.5,267.5 Z"/></g>
<g><path style="opacity:1" fill="#fcfcfc" d="M 526.5,290.5 C 557.833,290.5 589.167,290.5 620.5,290.5C 620.5,297.5 620.5,304.5 620.5,311.5C 589.167,311.5 557.833,311.5 526.5,311.5C 526.5,304.5 526.5,297.5 526.5,290.5 Z"/></g>
<g><path style="opacity:1" fill="#fefefe" d="M 334.5,291.5 C 365.833,291.5 397.167,291.5 428.5,291.5C 428.5,297.833 428.5,304.167 428.5,310.5C 397.167,310.5 365.833,310.5 334.5,310.5C 334.5,304.167 334.5,297.833 334.5,291.5 Z"/></g>
<g><path style="opacity:1" fill="#e8e8e8" d="M 334.5,291.5 C 397.998,290.501 461.664,290.168 525.5,290.5C 525.5,297.5 525.5,304.5 525.5,311.5C 493.662,311.832 461.996,311.498 430.5,310.5C 461.833,310.5 493.167,310.5 524.5,310.5C 524.5,304.167 524.5,297.833 524.5,291.5C 493.167,291.5 461.833,291.5 430.5,291.5C 429.509,297.979 429.176,304.646 429.5,311.5C 397.662,311.832 365.996,311.498 334.5,310.5C 365.833,310.5 397.167,310.5 428.5,310.5C 428.5,304.167 428.5,297.833 428.5,291.5C 397.167,291.5 365.833,291.5 334.5,291.5 Z"/></g>
<g><path style="opacity:1" fill="#fefefe" d="M 430.5,291.5 C 461.833,291.5 493.167,291.5 524.5,291.5C 524.5,297.833 524.5,304.167 524.5,310.5C 493.167,310.5 461.833,310.5 430.5,310.5C 430.5,304.167 430.5,297.833 430.5,291.5 Z"/></g>
<g><path style="opacity:1" fill="#dfdfdf" d="M 234.5,373.5 C 395.501,373.167 556.501,373.5 717.5,374.5C 637,374.833 556.5,375.167 476,375.5C 395.164,375.5 314.664,374.833 234.5,373.5 Z"/></g>
<g><path style="opacity:1" fill="#d3d3d3" d="M 716.5,472.5 C 620.5,473.833 524.5,473.833 428.5,472.5C 428.5,461.833 428.5,451.167 428.5,440.5C 397.167,440.5 365.833,440.5 334.5,440.5C 334.5,451.167 334.5,461.833 334.5,472.5C 333.501,462.249 333.168,451.249 333.5,439.5C 300.662,439.832 267.996,439.498 235.5,438.5C 268.167,438.5 300.833,438.5 333.5,438.5C 333.5,424.5 333.5,410.5 333.5,396.5C 427.167,395.172 523.5,395.172 622.5,396.5C 622.5,410.5 622.5,424.5 622.5,438.5C 749.167,439.167 749.167,439.833 622.5,440.5C 622.5,451.167 622.5,461.833 622.5,472.5C 653.833,472.5 685.167,472.5 716.5,472.5 Z"/></g>
<g><path style="opacity:1" fill="#fefefe" d="M 526.5,440.5 C 557.833,440.5 589.167,440.5 620.5,440.5C 620.5,451.167 620.5,461.833 620.5,472.5C 589.167,472.5 557.833,472.5 526.5,472.5C 526.5,461.833 526.5,451.167 526.5,440.5 Z"/></g>
<g><path style="opacity:1" fill="#fefefe" d="M 430.5,440.5 C 461.833,440.5 493.167,440.5 524.5,440.5C 524.5,451.167 524.5,461.833 524.5,472.5C 493.167,472.5 461.833,472.5 430.5,472.5C 430.5,461.833 430.5,451.167 430.5,440.5 Z"/></g>
<g><path style="opacity:1" fill="#fefefe" d="M 428.5,472.5 C 397.167,472.5 365.833,472.5 334.5,472.5C 334.5,461.833 334.5,451.167 334.5,440.5C 365.833,440.5 397.167,440.5 428.5,440.5C 428.5,451.167 428.5,461.833 428.5,472.5 Z"/></g>
<g><path style="opacity:1" fill="#fefefe" d="M 526.5,396.5 C 557.833,396.5 589.167,396.5 620.5,396.5C 620.5,410.5 620.5,424.5 620.5,438.5C 589.167,438.5 557.833,438.5 526.5,438.5C 526.5,424.5 526.5,410.5 526.5,396.5 Z"/></g>
<g><path style="opacity:1" fill="#fefefe" d="M 430.5,396.5 C 461.833,396.5 493.167,396.5 524.5,396.5C 524.5,410.5 524.5,424.5 524.5,438.5C 493.167,438.5 461.833,438.5 430.5,438.5C 430.5,424.5 430.5,410.5 430.5,396.5 Z"/></g>
<g><path style="opacity:1" fill="#fefefe" d="M 334.5,396.5 C 365.833,396.5 397.167,396.5 428.5,396.5C 428.5,410.5 428.5,424.5 428.5,438.5C 397.167,438.5 365.833,438.5 334.5,438.5C 334.5,424.5 334.5,410.5 334.5,396.5 Z"/></g>
<g><path style="opacity:1" fill="#ececec" d="M 235.5,438.5 C 267.996,439.498 300.662,439.832 333.5,439.5C 333.168,451.249 333.501,462.249 334.5,472.5C 365.833,472.5 397.167,472.5 428.5,472.5C 524.5,473.833 620.5,473.833 716.5,472.5C 718.379,472.393 718.712,472.893 717.5,474C 556.499,474.833 395.499,474.667 234.5,473.5C 267.16,472.5 299.827,472.167 332.5,472.5C 332.5,461.833 332.5,451.167 332.5,440.5C 299.827,440.833 267.16,440.5 234.5,439.5C 234.624,438.893 234.957,438.56 235.5,438.5 Z"/></g>
<g><path style="opacity:1" fill="#368ecb" d="M 716.5,623.5 C 716.5,625.833 716.5,628.167 716.5,630.5C 556.167,630.5 395.833,630.5 235.5,630.5C 235.5,628.167 235.5,625.833 235.5,623.5C 395.833,623.5 556.167,623.5 716.5,623.5 Z"/></g>
<g><path style="opacity:1" fill="#478ab7" d="M 716.5,623.5 C 717.473,625.948 717.806,628.615 717.5,631.5C 556.666,631.833 395.999,631.5 235.5,630.5C 395.833,630.5 556.167,630.5 716.5,630.5C 716.5,628.167 716.5,625.833 716.5,623.5 Z"/></g>
</svg>
