<?xml version="1.0" encoding="UTF-8"?>
<!DOCTYPE svg PUBLIC "-//W3C//DTD SVG 1.1//EN" "http://www.w3.org/Graphics/SVG/1.1/DTD/svg11.dtd">
<svg xmlns="http://www.w3.org/2000/svg" version="1.1" width="761px" height="1076px" style="shape-rendering:geometricPrecision; text-rendering:geometricPrecision; image-rendering:optimizeQuality; fill-rule:evenodd; clip-rule:evenodd" xmlns:xlink="http://www.w3.org/1999/xlink">
<g><path style="opacity:1" fill="#fefefe" d="M -0.5,-0.5 C 253.167,-0.5 506.833,-0.5 760.5,-0.5C 760.5,358.167 760.5,716.833 760.5,1075.5C 506.833,1075.5 253.167,1075.5 -0.5,1075.5C -0.5,716.833 -0.5,358.167 -0.5,-0.5 Z"/></g>
<g><path style="opacity:1" fill="#77a3da" d="M 123.5,89.5 C 122.797,87.2843 121.464,85.451 119.5,84C 110.441,81.9162 104.274,76.7496 101,68.5C 102.951,65.2139 105.285,62.2139 108,59.5C 108.49,58.2068 108.657,56.8734 108.5,55.5C 111.499,57.437 114.833,57.937 118.5,57C 119.257,55.4878 120.257,54.1545 121.5,53C 124.051,52.9977 126.051,52.1644 127.5,50.5C 128.728,49.6935 129.728,48.6935 130.5,47.5C 131.434,46.4324 131.768,45.099 131.5,43.5C 159.833,43.5 188.167,43.5 216.5,43.5C 216.5,58.8333 216.5,74.1667 216.5,89.5C 185.5,89.5 154.5,89.5 123.5,89.5 Z"/></g>
<g><path style="opacity:1" fill="#f1c242" d="M 75.5,43.5 C 74.7846,46.9072 74.7846,50.2405 75.5,53.5C 74.1667,53.5 72.8333,53.5 71.5,53.5C 71.7148,51.8212 71.0481,50.8212 69.5,50.5C 71.1368,48.8763 70.8034,47.8763 68.5,47.5C 65.1572,50.2888 61.4905,50.9555 57.5,49.5C 57.8146,54.7147 57.148,59.7147 55.5,64.5C 55.8847,68.7571 56.5514,72.9237 57.5,77C 57.0426,77.414 56.7093,77.914 56.5,78.5C 57.5821,78.7486 58.9154,78.9152 60.5,79C 59.5495,82.0567 59.2161,85.2234 59.5,88.5C 62.7131,88.19 65.7131,88.5233 68.5,89.5C 63.5,89.5 58.5,89.5 53.5,89.5C 53.5,74.1667 53.5,58.8333 53.5,43.5C 60.8333,43.5 68.1667,43.5 75.5,43.5 Z"/></g>
<g><path style="opacity:1" fill="#eee224" d="M 75.5,43.5 C 78.8984,43.1796 82.2317,43.513 85.5,44.5C 85.1373,45.1835 84.8039,45.8501 84.5,46.5C 81.5,46.8333 79.8333,48.5 79.5,51.5C 78.8333,51.5 78.5,51.8333 78.5,52.5C 77.609,53.1098 76.609,53.4431 75.5,53.5C 74.7846,50.2405 74.7846,46.9072 75.5,43.5 Z"/></g>
<g><path style="opacity:1" fill="#f2ec1c" d="M 115.5,43.5 C 120.5,43.5 125.5,43.5 130.5,43.5C 130.5,44.8333 130.5,46.1667 130.5,47.5C 129.728,48.6935 128.728,49.6935 127.5,50.5C 124.358,50.1507 121.025,49.9841 117.5,50C 116.331,47.9935 115.665,45.8268 115.5,43.5 Z"/></g>
<g><path style="opacity:1" fill="#5f6a78" d="M 84.5,46.5 C 84.298,48.9496 84.6314,51.283 85.5,53.5C 83.0233,54.12 83.0233,55.12 85.5,56.5C 85.1445,57.5223 84.4778,58.189 83.5,58.5C 82.7814,56.2362 82.448,53.9029 82.5,51.5C 81.5,51.5 80.5,51.5 79.5,51.5C 79.8333,48.5 81.5,46.8333 84.5,46.5 Z"/></g>
<g><path style="opacity:1" fill="#f0d521" d="M 69.5,50.5 C 68.8645,52.7946 67.5311,54.4613 65.5,55.5C 64.7698,59.0606 64.1031,62.7272 63.5,66.5C 61.9826,66.5106 60.8159,67.1772 60,68.5C 59.3333,70.8333 59.3333,73.1667 60,75.5C 63.6667,77.8333 67.3333,80.1667 71,82.5C 71.4966,84.8098 71.6633,87.1432 71.5,89.5C 70.5,89.5 69.5,89.5 68.5,89.5C 65.7131,88.5233 62.7131,88.19 59.5,88.5C 59.2161,85.2234 59.5495,82.0567 60.5,79C 58.9154,78.9152 57.5821,78.7486 56.5,78.5C 56.7093,77.914 57.0426,77.414 57.5,77C 56.5514,72.9237 55.8847,68.7571 55.5,64.5C 57.148,59.7147 57.8146,54.7147 57.5,49.5C 61.4905,50.9555 65.1572,50.2888 68.5,47.5C 70.8034,47.8763 71.1368,48.8763 69.5,50.5 Z"/></g>
<g><path style="opacity:1" fill="#f1d527" d="M 115.5,43.5 C 115.665,45.8268 116.331,47.9935 117.5,50C 121.025,49.9841 124.358,50.1507 127.5,50.5C 126.051,52.1644 124.051,52.9977 121.5,53C 120.257,54.1545 119.257,55.4878 118.5,57C 114.833,57.937 111.499,57.437 108.5,55.5C 108.5,55.1667 108.5,54.8333 108.5,54.5C 107.791,53.596 106.791,53.2627 105.5,53.5C 105.5,54.5 105.5,55.5 105.5,56.5C 102.926,58.0243 100.259,59.3576 97.5,60.5C 97.5,60.1667 97.5,59.8333 97.5,59.5C 97.5,54.1667 97.5,48.8333 97.5,43.5C 103.5,43.5 109.5,43.5 115.5,43.5 Z"/></g>
<g><path style="opacity:1" fill="#798566" d="M 108.5,54.5 C 107.222,54.7822 106.222,55.4489 105.5,56.5C 105.5,55.5 105.5,54.5 105.5,53.5C 106.791,53.2627 107.791,53.596 108.5,54.5 Z"/></g>
<g><path style="opacity:1" fill="#838958" d="M 65.5,55.5 C 66.0803,59.649 65.4136,63.3157 63.5,66.5C 64.1031,62.7272 64.7698,59.0606 65.5,55.5 Z"/></g>
<g><path style="opacity:1" fill="#324ba0" d="M 79.5,51.5 C 80.5,51.5 81.5,51.5 82.5,51.5C 82.448,53.9029 82.7814,56.2362 83.5,58.5C 81.2572,59.8584 79.5905,59.1917 78.5,56.5C 78.5,55.1667 78.5,53.8333 78.5,52.5C 78.5,51.8333 78.8333,51.5 79.5,51.5 Z"/></g>
<g><path style="opacity:1" fill="#334c95" d="M 97.5,59.5 C 97.5,59.8333 97.5,60.1667 97.5,60.5C 97.5,61.1667 97.5,61.8333 97.5,62.5C 95.8828,63.038 94.2161,63.3713 92.5,63.5C 93.0922,60.3695 92.0922,58.0361 89.5,56.5C 88.5637,55.0256 87.2303,54.0256 85.5,53.5C 84.6314,51.283 84.298,48.9496 84.5,46.5C 86.0481,46.1788 86.7148,45.1788 86.5,43.5C 89.8333,43.5 93.1667,43.5 96.5,43.5C 96.1786,49.0262 96.5119,54.3595 97.5,59.5 Z"/></g>
<g><path style="opacity:1" fill="#ceb655" d="M 85.5,53.5 C 87.2303,54.0256 88.5637,55.0256 89.5,56.5C 87.9519,56.8212 87.2852,57.8212 87.5,59.5C 85.6203,59.2291 84.287,59.8958 83.5,61.5C 79.1567,61.6526 76.99,59.6526 77,55.5C 77.3826,56.056 77.8826,56.3893 78.5,56.5C 79.5905,59.1917 81.2572,59.8584 83.5,58.5C 84.4778,58.189 85.1445,57.5223 85.5,56.5C 83.0233,55.12 83.0233,54.12 85.5,53.5 Z"/></g>
<g><path style="opacity:1" fill="#354c97" d="M 69.5,50.5 C 71.0481,50.8212 71.7148,51.8212 71.5,53.5C 72.8333,53.5 74.1667,53.5 75.5,53.5C 75.7845,55.4147 75.4511,57.0813 74.5,58.5C 71.2651,56.4229 70.7651,57.4229 73,61.5C 75.8727,64.3727 78.706,67.206 81.5,70C 79.9833,71.6843 78.3166,73.1843 76.5,74.5C 72.774,74.1774 69.1073,74.5108 65.5,75.5C 66.8498,76.9501 68.5165,77.6168 70.5,77.5C 74.97,78.4861 79.6367,78.8195 84.5,78.5C 84.5,82.1667 84.5,85.8333 84.5,89.5C 80.1667,89.5 75.8333,89.5 71.5,89.5C 71.6633,87.1432 71.4966,84.8098 71,82.5C 67.3333,80.1667 63.6667,77.8333 60,75.5C 59.3333,73.1667 59.3333,70.8333 60,68.5C 60.8159,67.1772 61.9826,66.5106 63.5,66.5C 65.4136,63.3157 66.0803,59.649 65.5,55.5C 67.5311,54.4613 68.8645,52.7946 69.5,50.5 Z"/></g>
<g><path style="opacity:1" fill="#8b8966" d="M 78.5,52.5 C 78.5,53.8333 78.5,55.1667 78.5,56.5C 77.8826,56.3893 77.3826,56.056 77,55.5C 76.99,59.6526 79.1567,61.6526 83.5,61.5C 84.8333,62.1667 86.1667,62.8333 87.5,63.5C 82.2002,64.7441 77.8668,63.0775 74.5,58.5C 75.4511,57.0813 75.7845,55.4147 75.5,53.5C 76.609,53.4431 77.609,53.1098 78.5,52.5 Z"/></g>
<g><path style="opacity:1" fill="#80834d" d="M 105.5,56.5 C 105.204,58.403 104.537,60.0697 103.5,61.5C 103.631,60.7611 103.464,60.0944 103,59.5C 101.22,60.6394 99.3863,61.6394 97.5,62.5C 97.5,61.8333 97.5,61.1667 97.5,60.5C 100.259,59.3576 102.926,58.0243 105.5,56.5 Z"/></g>
<g><path style="opacity:1" fill="#969976" d="M 89.5,56.5 C 92.0922,58.0361 93.0922,60.3695 92.5,63.5C 90.9348,61.4907 89.9348,59.1573 89.5,56.5 Z"/></g>
<g><path style="opacity:1" fill="#e5d141" d="M 89.5,56.5 C 89.9348,59.1573 90.9348,61.4907 92.5,63.5C 94.2161,63.3713 95.8828,63.038 97.5,62.5C 99.3863,61.6394 101.22,60.6394 103,59.5C 103.464,60.0944 103.631,60.7611 103.5,61.5C 100.143,63.8658 96.8101,66.1992 93.5,68.5C 91.9519,68.8212 91.2852,69.8212 91.5,71.5C 92.9587,71.4326 94.2921,71.7659 95.5,72.5C 100.099,75.4293 104.099,79.096 107.5,83.5C 107.672,84.4916 107.338,85.1583 106.5,85.5C 102.966,83.2336 99.2996,81.2336 95.5,79.5C 93.403,77.5176 90.7363,76.5176 87.5,76.5C 85.1432,76.6633 82.8098,76.4966 80.5,76C 83.1667,72.6667 83.1667,69.3333 80.5,66C 83.2263,65.8184 85.8929,65.3184 88.5,64.5C 88.3764,63.8933 88.0431,63.56 87.5,63.5C 86.1667,62.8333 84.8333,62.1667 83.5,61.5C 84.287,59.8958 85.6203,59.2291 87.5,59.5C 87.2852,57.8212 87.9519,56.8212 89.5,56.5 Z"/></g>
<g><path style="opacity:1" fill="#787d59" d="M 93.5,68.5 C 93.3893,69.1174 93.056,69.6174 92.5,70C 94.1193,70.2355 95.1193,71.0689 95.5,72.5C 94.2921,71.7659 92.9587,71.4326 91.5,71.5C 91.2852,69.8212 91.9519,68.8212 93.5,68.5 Z"/></g>
<g><path style="opacity:1" fill="#dabe51" d="M 74.5,58.5 C 77.8668,63.0775 82.2002,64.7441 87.5,63.5C 88.0431,63.56 88.3764,63.8933 88.5,64.5C 85.8929,65.3184 83.2263,65.8184 80.5,66C 83.1667,69.3333 83.1667,72.6667 80.5,76C 82.8098,76.4966 85.1432,76.6633 87.5,76.5C 82.3595,77.4881 77.0262,77.8214 71.5,77.5C 71.3893,76.8826 71.056,76.3826 70.5,76C 72.7078,75.8091 74.7078,75.3091 76.5,74.5C 78.3166,73.1843 79.9833,71.6843 81.5,70C 78.706,67.206 75.8727,64.3727 73,61.5C 70.7651,57.4229 71.2651,56.4229 74.5,58.5 Z"/></g>
<g><path style="opacity:1" fill="#ad9a61" d="M 76.5,74.5 C 74.7078,75.3091 72.7078,75.8091 70.5,76C 71.056,76.3826 71.3893,76.8826 71.5,77.5C 71.1667,77.5 70.8333,77.5 70.5,77.5C 68.5165,77.6168 66.8498,76.9501 65.5,75.5C 69.1073,74.5108 72.774,74.1774 76.5,74.5 Z"/></g>
<g><path style="opacity:1" fill="#69706d" d="M 87.5,76.5 C 90.7363,76.5176 93.403,77.5176 95.5,79.5C 93.8828,78.962 92.2161,78.6287 90.5,78.5C 90.5,82.1667 90.5,85.8333 90.5,89.5C 90.1667,89.5 89.8333,89.5 89.5,89.5C 89.5,85.8333 89.5,82.1667 89.5,78.5C 88.1667,78.5 86.8333,78.5 85.5,78.5C 85.5,82.1667 85.5,85.8333 85.5,89.5C 85.1667,89.5 84.8333,89.5 84.5,89.5C 84.5,85.8333 84.5,82.1667 84.5,78.5C 79.6367,78.8195 74.97,78.4861 70.5,77.5C 70.8333,77.5 71.1667,77.5 71.5,77.5C 77.0262,77.8214 82.3595,77.4881 87.5,76.5 Z"/></g>
<g><path style="opacity:1" fill="#d3c56f" d="M 89.5,89.5 C 88.1667,89.5 86.8333,89.5 85.5,89.5C 85.5,85.8333 85.5,82.1667 85.5,78.5C 86.8333,78.5 88.1667,78.5 89.5,78.5C 89.5,82.1667 89.5,85.8333 89.5,89.5 Z"/></g>
<g><path style="opacity:1" fill="#f4d12d" d="M 86.5,79.5 C 87.7647,80.5145 88.4313,82.0145 88.5,84C 88.1667,85.5 87.8333,87 87.5,88.5C 86.5159,85.5719 86.1826,82.5719 86.5,79.5 Z"/></g>
<g><path style="opacity:1" fill="#324d97" d="M 108.5,54.5 C 108.5,54.8333 108.5,55.1667 108.5,55.5C 108.657,56.8734 108.49,58.2068 108,59.5C 105.285,62.2139 102.951,65.2139 101,68.5C 104.274,76.7496 110.441,81.9162 119.5,84C 121.464,85.451 122.797,87.2843 123.5,89.5C 112.5,89.5 101.5,89.5 90.5,89.5C 90.5,85.8333 90.5,82.1667 90.5,78.5C 92.2161,78.6287 93.8828,78.962 95.5,79.5C 99.2996,81.2336 102.966,83.2336 106.5,85.5C 107.368,87.6246 108.368,87.7913 109.5,86C 109.361,84.699 108.695,83.8656 107.5,83.5C 104.099,79.096 100.099,75.4293 95.5,72.5C 95.1193,71.0689 94.1193,70.2355 92.5,70C 93.056,69.6174 93.3893,69.1174 93.5,68.5C 96.8101,66.1992 100.143,63.8658 103.5,61.5C 104.537,60.0697 105.204,58.403 105.5,56.5C 106.222,55.4489 107.222,54.7822 108.5,54.5 Z"/></g>
<g><path style="opacity:1" fill="#96a85b" d="M 107.5,83.5 C 108.695,83.8656 109.361,84.699 109.5,86C 108.368,87.7913 107.368,87.6246 106.5,85.5C 107.338,85.1583 107.672,84.4916 107.5,83.5 Z"/></g>
<g><path style="opacity:1" fill="#3e9dcb" d="M 238.5,159.5 C 244.674,158.173 246.841,160.506 245,166.5C 244.313,168.555 243.146,170.221 241.5,171.5C 237.138,168.124 236.138,164.124 238.5,159.5 Z"/></g>
<g><path style="opacity:1" fill="#66b2d4" d="M 237.5,180.5 C 240.167,180.5 242.833,180.5 245.5,180.5C 245.5,184.833 245.5,189.167 245.5,193.5C 242.833,193.5 240.167,193.5 237.5,193.5C 237.5,189.167 237.5,184.833 237.5,180.5 Z"/></g>
<g><path style="opacity:1" fill="#46a5cf" d="M 235.5,205.5 C 239.5,205.5 243.5,205.5 247.5,205.5C 247.5,208.5 247.5,211.5 247.5,214.5C 243.818,214.665 240.152,214.499 236.5,214C 235.556,211.281 235.223,208.448 235.5,205.5 Z"/></g>
<g><path style="opacity:1" fill="#438bbb" d="M 235.5,323.5 C 396.167,323.5 556.833,323.5 717.5,323.5C 717.5,326.167 717.5,328.833 717.5,331.5C 556.833,331.5 396.167,331.5 235.5,331.5C 235.5,328.833 235.5,326.167 235.5,323.5 Z"/></g>
<g><path style="opacity:1" fill="#338fcd" d="M 236.5,324.5 C 394.501,324.167 552.501,324.5 710.5,325.5C 702.5,326.833 702.5,328.167 710.5,329.5C 552.501,330.5 394.501,330.833 236.5,330.5C 236.5,328.5 236.5,326.5 236.5,324.5 Z"/></g>
<g><path style="opacity:1" fill="#408ac3" d="M 238.5,326.5 C 393.501,326.167 548.501,326.5 703.5,327.5C 626,327.833 548.5,328.167 471,328.5C 393.164,328.5 315.664,327.833 238.5,326.5 Z"/></g>
<g><path style="opacity:1" fill="#639bc6" d="M 235.5,913.5 C 396.167,913.5 556.833,913.5 717.5,913.5C 717.5,916.5 717.5,919.5 717.5,922.5C 556.833,922.5 396.167,922.5 235.5,922.5C 235.5,919.5 235.5,916.5 235.5,913.5 Z"/></g>
<g><path style="opacity:1" fill="#388dcc" d="M 236.5,919.5 C 859.028,917.834 859.028,916.834 236.5,916.5C 395.83,914.501 555.497,913.835 715.5,914.5C 715.674,916.861 716.007,919.194 716.5,921.5C 556.163,922.165 396.163,921.499 236.5,919.5 Z"/></g>
<g><path style="opacity:1" fill="#3c8cc4" d="M 236.5,916.5 C 859.028,916.834 859.028,917.834 236.5,919.5C 236.5,918.5 236.5,917.5 236.5,916.5 Z"/></g>
</svg>
